<mxfile host="app.diagrams.net" agent="Mozilla/5.0 (Windows NT 10.0; Win64; x64) AppleWebKit/537.36 (KHTML, like Gecko) Chrome/132.0.0.0 Safari/537.36 OPR/117.0.0.0" version="26.1.1">
  <diagram name="Strona-1" id="ftapWTvaxse_vmA_V62d">
    <mxGraphModel dx="753" dy="519" grid="1" gridSize="10" guides="1" tooltips="1" connect="1" arrows="1" fold="1" page="1" pageScale="1" pageWidth="827" pageHeight="1169" math="0" shadow="0">
      <root>
        <mxCell id="0" />
        <mxCell id="1" parent="0" />
        <mxCell id="6rM51QScrd6kyewJzlmz-1" style="edgeStyle=orthogonalEdgeStyle;rounded=0;orthogonalLoop=1;jettySize=auto;html=1;exitX=0.5;exitY=0.5;exitDx=0;exitDy=0;exitPerimeter=0;entryX=0;entryY=0.75;entryDx=0;entryDy=0;endArrow=none;startFill=0;" edge="1" parent="1" source="6rM51QScrd6kyewJzlmz-2" target="6rM51QScrd6kyewJzlmz-5">
          <mxGeometry relative="1" as="geometry" />
        </mxCell>
        <mxCell id="6rM51QScrd6kyewJzlmz-2" value="Pracownik&lt;div&gt;&lt;br&gt;&lt;/div&gt;" style="shape=umlActor;verticalLabelPosition=bottom;verticalAlign=top;html=1;outlineConnect=0;" vertex="1" parent="1">
          <mxGeometry x="60" y="240" width="30" height="60" as="geometry" />
        </mxCell>
        <mxCell id="6rM51QScrd6kyewJzlmz-3" style="edgeStyle=orthogonalEdgeStyle;rounded=0;orthogonalLoop=1;jettySize=auto;html=1;exitX=0.5;exitY=0.5;exitDx=0;exitDy=0;exitPerimeter=0;entryX=0.5;entryY=1;entryDx=0;entryDy=0;endArrow=none;startFill=0;" edge="1" parent="1" source="6rM51QScrd6kyewJzlmz-4" target="6rM51QScrd6kyewJzlmz-5">
          <mxGeometry relative="1" as="geometry" />
        </mxCell>
        <mxCell id="6rM51QScrd6kyewJzlmz-4" value="Kurier&lt;div&gt;&lt;br&gt;&lt;/div&gt;" style="shape=umlActor;verticalLabelPosition=bottom;verticalAlign=top;html=1;" vertex="1" parent="1">
          <mxGeometry x="220" y="490" width="30" height="60" as="geometry" />
        </mxCell>
        <mxCell id="6rM51QScrd6kyewJzlmz-5" value="System zarządzania danymi przesyłki" style="html=1;whiteSpace=wrap;" vertex="1" parent="1">
          <mxGeometry x="240" y="110" width="160" height="220" as="geometry" />
        </mxCell>
        <mxCell id="6rM51QScrd6kyewJzlmz-6" value="Użytkownik" style="shape=umlActor;verticalLabelPosition=bottom;verticalAlign=top;html=1;" vertex="1" parent="1">
          <mxGeometry x="170" y="70" width="30" height="60" as="geometry" />
        </mxCell>
        <mxCell id="6rM51QScrd6kyewJzlmz-7" style="edgeStyle=orthogonalEdgeStyle;rounded=0;orthogonalLoop=1;jettySize=auto;html=1;exitX=1;exitY=0.3333333333333333;exitDx=0;exitDy=0;exitPerimeter=0;entryX=0;entryY=1;entryDx=0;entryDy=0;entryPerimeter=0;endArrow=block;endFill=0;endSize=16;" edge="1" parent="1" source="6rM51QScrd6kyewJzlmz-2" target="6rM51QScrd6kyewJzlmz-6">
          <mxGeometry relative="1" as="geometry">
            <Array as="points">
              <mxPoint x="90" y="200" />
              <mxPoint x="100" y="200" />
              <mxPoint x="100" y="130" />
            </Array>
          </mxGeometry>
        </mxCell>
        <mxCell id="6rM51QScrd6kyewJzlmz-8" value="Użytkownik" style="shape=umlActor;verticalLabelPosition=bottom;verticalAlign=top;html=1;" vertex="1" parent="1">
          <mxGeometry x="320" y="670" width="30" height="60" as="geometry" />
        </mxCell>
        <mxCell id="6rM51QScrd6kyewJzlmz-9" style="edgeStyle=orthogonalEdgeStyle;rounded=0;orthogonalLoop=1;jettySize=auto;html=1;exitX=1;exitY=1;exitDx=0;exitDy=0;exitPerimeter=0;entryX=0.5;entryY=0;entryDx=0;entryDy=0;entryPerimeter=0;endArrow=block;endFill=0;endSize=16;" edge="1" parent="1" source="6rM51QScrd6kyewJzlmz-4" target="6rM51QScrd6kyewJzlmz-8">
          <mxGeometry relative="1" as="geometry">
            <Array as="points">
              <mxPoint x="290" y="550" />
              <mxPoint x="290" y="650" />
            </Array>
          </mxGeometry>
        </mxCell>
        <mxCell id="6rM51QScrd6kyewJzlmz-10" style="edgeStyle=orthogonalEdgeStyle;rounded=0;orthogonalLoop=1;jettySize=auto;html=1;exitX=0;exitY=0.3333333333333333;exitDx=0;exitDy=0;exitPerimeter=0;entryX=1;entryY=0.5;entryDx=0;entryDy=0;endArrow=none;startFill=0;" edge="1" parent="1" source="6rM51QScrd6kyewJzlmz-11" target="6rM51QScrd6kyewJzlmz-5">
          <mxGeometry relative="1" as="geometry" />
        </mxCell>
        <mxCell id="6rM51QScrd6kyewJzlmz-11" value="Administrator" style="shape=umlActor;verticalLabelPosition=bottom;verticalAlign=top;html=1;outlineConnect=0;" vertex="1" parent="1">
          <mxGeometry x="600" y="120" width="30" height="60" as="geometry" />
        </mxCell>
        <mxCell id="6rM51QScrd6kyewJzlmz-12" value="Użytkownik" style="shape=umlActor;verticalLabelPosition=bottom;verticalAlign=top;html=1;outlineConnect=0;" vertex="1" parent="1">
          <mxGeometry x="750" y="230" width="30" height="60" as="geometry" />
        </mxCell>
        <mxCell id="6rM51QScrd6kyewJzlmz-13" style="edgeStyle=orthogonalEdgeStyle;rounded=0;orthogonalLoop=1;jettySize=auto;html=1;exitX=0;exitY=0.3333333333333333;exitDx=0;exitDy=0;exitPerimeter=0;entryX=1;entryY=1;entryDx=0;entryDy=0;endArrow=none;startFill=0;" edge="1" parent="1" source="6rM51QScrd6kyewJzlmz-14" target="6rM51QScrd6kyewJzlmz-5">
          <mxGeometry relative="1" as="geometry" />
        </mxCell>
        <mxCell id="6rM51QScrd6kyewJzlmz-14" value="Nadawca" style="shape=umlActor;verticalLabelPosition=bottom;verticalAlign=top;html=1;outlineConnect=0;" vertex="1" parent="1">
          <mxGeometry x="540" y="360" width="30" height="60" as="geometry" />
        </mxCell>
        <mxCell id="6rM51QScrd6kyewJzlmz-15" style="edgeStyle=orthogonalEdgeStyle;rounded=0;orthogonalLoop=1;jettySize=auto;html=1;exitX=1;exitY=1;exitDx=0;exitDy=0;exitPerimeter=0;entryX=0.5;entryY=0;entryDx=0;entryDy=0;entryPerimeter=0;endArrow=block;endFill=0;endSize=16;" edge="1" parent="1" source="6rM51QScrd6kyewJzlmz-11" target="6rM51QScrd6kyewJzlmz-12">
          <mxGeometry relative="1" as="geometry" />
        </mxCell>
      </root>
    </mxGraphModel>
  </diagram>
</mxfile>
